<?xml version="1.0" encoding="utf-8"?>
<!-- Generator: Adobe Illustrator 23.0.2, SVG Export Plug-In . SVG Version: 6.00 Build 0)  -->
<svg version="1.1" id="Capa_1" xmlns="http://www.w3.org/2000/svg" xmlns:xlink="http://www.w3.org/1999/xlink" x="0px" y="0px"
	 viewBox="0 0 34.1 34.1" style="enable-background:new 0 0 34.1 34.1;" xml:space="preserve">
<style type="text/css">
	.st0{fill:#FFFFFF;}
</style>
<g>
	<path class="st0" d="M17.1,3.2c4.5,0,5.1,0,6.8,0.1c1.6,0.1,2.5,0.4,3.1,0.6c0.8,0.3,1.4,0.7,1.9,1.3c0.6,0.6,1,1.2,1.3,1.9
		c0.2,0.6,0.5,1.5,0.6,3.1c0.1,1.8,0.1,2.3,0.1,6.8s0,5.1-0.1,6.8c-0.1,1.6-0.4,2.5-0.6,3.1c-0.3,0.8-0.7,1.4-1.3,1.9
		c-0.6,0.6-1.2,1-1.9,1.3c-0.6,0.2-1.5,0.5-3.1,0.6c-1.8,0.1-2.3,0.1-6.8,0.1s-5.1,0-6.8-0.1c-1.6-0.1-2.5-0.4-3.1-0.6
		c-0.8-0.3-1.4-0.7-1.9-1.3c-0.6-0.6-1-1.2-1.3-1.9c-0.2-0.6-0.5-1.5-0.6-3.1c-0.1-1.8-0.1-2.3-0.1-6.8s0-5.1,0.1-6.8
		c0.1-1.6,0.4-2.5,0.6-3.1c0.3-0.8,0.7-1.4,1.3-1.9c0.6-0.6,1.2-1,1.9-1.3c0.6-0.2,1.5-0.5,3.1-0.6C12,3.2,12.5,3.2,17.1,3.2
		 M17.1,0.1c-4.6,0-5.2,0-7,0.1C8.3,0.3,7,0.6,6,1C4.9,1.5,3.9,2,3,3C2,3.9,1.5,4.9,1,6C0.6,7,0.3,8.3,0.2,10.1
		c-0.1,1.8-0.1,2.4-0.1,7c0,4.6,0,5.2,0.1,7c0.1,1.8,0.4,3,0.8,4.1c0.4,1.1,1,2.1,2,3c0.9,0.9,1.9,1.5,3,2c1.1,0.4,2.3,0.7,4.1,0.8
		c1.8,0.1,2.4,0.1,7,0.1s5.2,0,7-0.1c1.8-0.1,3-0.4,4.1-0.8c1.1-0.4,2.1-1,3-2c0.9-0.9,1.5-1.9,2-3c0.4-1.1,0.7-2.3,0.8-4.1
		c0.1-1.8,0.1-2.4,0.1-7s0-5.2-0.1-7c-0.1-1.8-0.4-3-0.8-4.1c-0.4-1.1-1-2.1-2-3c-0.9-0.9-1.9-1.5-3-2c-1.1-0.4-2.3-0.7-4.1-0.8
		C22.2,0.2,21.6,0.1,17.1,0.1L17.1,0.1z"/>
	<path class="st0" d="M17.1,8.4c-4.8,0-8.7,3.9-8.7,8.7s3.9,8.7,8.7,8.7s8.7-3.9,8.7-8.7S21.8,8.4,17.1,8.4z M17.1,22.7
		c-3.1,0-5.6-2.5-5.6-5.6s2.5-5.6,5.6-5.6c3.1,0,5.6,2.5,5.6,5.6S20.2,22.7,17.1,22.7z"/>
	<circle class="st0" cx="26.1" cy="8" r="2"/>
</g>
</svg>
